<?plantuml 1.2026.2?><svg xmlns="http://www.w3.org/2000/svg" xmlns:xlink="http://www.w3.org/1999/xlink" contentStyleType="text/css" data-diagram-type="ACTIVITY" height="631px" preserveAspectRatio="none" style="width:536px;height:631px;background:#FFFFFF;" version="1.1" viewBox="0 0 536 631" width="536px" zoomAndPan="magnify"><title>Guest Flowchart - Spotly</title><defs/><g><g class="title" data-source-line="9"><text fill="#000000" font-family="Arial" font-size="14" font-weight="bold" lengthAdjust="spacing" textLength="194.9746" x="169.2139" y="32.9951">Guest Flowchart - Spotly</text></g><ellipse cx="316.6731" cy="57.2969" fill="#222222" rx="10" ry="10" style="stroke:#222222;stroke-width:1;"/><rect fill="#FFFFFF" height="33.9688" rx="12.5" ry="12.5" style="stroke:#333333;stroke-width:0.5;" width="168.5996" x="232.3733" y="87.2969"/><text fill="#000000" font-family="Arial" font-size="12" lengthAdjust="spacing" textLength="148.5996" x="242.3733" y="108.4355">start / visit landing_page</text><rect fill="#FFFFFF" height="33.9688" rx="12.5" ry="12.5" style="stroke:#333333;stroke-width:0.5;" width="109.7715" x="261.7874" y="141.2656"/><text fill="#000000" font-family="Arial" font-size="12" lengthAdjust="spacing" textLength="89.7715" x="271.7874" y="162.4043">browse_events</text><rect fill="#FFFFFF" height="33.9688" rx="12.5" ry="12.5" style="stroke:#333333;stroke-width:0.5;" width="334.4785" x="149.4338" y="243.6367"/><text fill="#000000" font-family="Arial" font-size="12" lengthAdjust="spacing" textLength="314.4785" x="159.4338" y="264.7754">search_by_keyword or filter_by_category_date_price</text><polygon fill="#FFFFFF" points="269.5168,195.2344,363.8293,195.2344,375.8293,207.2344,363.8293,219.2344,269.5168,219.2344,257.5168,207.2344,269.5168,195.2344" style="stroke:#333333;stroke-width:0.5;"/><text fill="#000000" font-family="Arial" font-size="11" lengthAdjust="spacing" textLength="19.0083" x="320.6731" y="229.4448">yes</text><text fill="#000000" font-family="Arial" font-size="12" lengthAdjust="spacing" textLength="94.3125" x="269.5168" y="211.3887">search or filter?</text><text fill="#000000" font-family="Arial" font-size="11" lengthAdjust="spacing" textLength="13.7017" x="375.8293" y="204.6401">no</text><polygon fill="#FFFFFF" points="316.6731,297.6055,328.6731,309.6055,316.6731,321.6055,304.6731,309.6055,316.6731,297.6055" style="stroke:#333333;stroke-width:0.5;"/><rect fill="#FFFFFF" height="33.9688" rx="12.5" ry="12.5" style="stroke:#333333;stroke-width:0.5;" width="133.7891" x="249.7786" y="341.6055"/><text fill="#000000" font-family="Arial" font-size="12" lengthAdjust="spacing" textLength="113.7891" x="259.7786" y="362.7441">view_event_details</text><polygon fill="#FFFFFF" points="267.0764,395.5742,366.2698,395.5742,378.2698,407.5742,366.2698,419.5742,267.0764,419.5742,255.0764,407.5742,267.0764,395.5742" style="stroke:#333333;stroke-width:0.5;"/><text fill="#000000" font-family="Arial" font-size="12" lengthAdjust="spacing" textLength="99.1934" x="267.0764" y="411.7285">click_book_now?</text><text fill="#000000" font-family="Arial" font-size="11" lengthAdjust="spacing" textLength="19.0083" x="236.0681" y="404.98">yes</text><text fill="#000000" font-family="Arial" font-size="11" lengthAdjust="spacing" textLength="13.7017" x="378.2698" y="404.98">no</text><polygon fill="#FFFFFF" points="121.3364,429.5742,227.2446,429.5742,239.2446,441.5742,227.2446,453.5742,121.3364,453.5742,109.3364,441.5742,121.3364,429.5742" style="stroke:#333333;stroke-width:0.5;"/><text fill="#000000" font-family="Arial" font-size="12" lengthAdjust="spacing" textLength="105.9082" x="121.3364" y="445.7285">is_authenticated?</text><text fill="#000000" font-family="Arial" font-size="11" lengthAdjust="spacing" textLength="19.0083" x="90.3281" y="438.98">yes</text><text fill="#000000" font-family="Arial" font-size="11" lengthAdjust="spacing" textLength="13.7017" x="239.2446" y="438.98">no</text><rect fill="#FFFFFF" height="33.9688" rx="12.5" ry="12.5" style="stroke:#333333;stroke-width:0.5;" width="140.7266" x="11" y="463.5742"/><text fill="#000000" font-family="Arial" font-size="12" lengthAdjust="spacing" textLength="120.7266" x="21" y="484.7129">proceed_to_booking</text><rect fill="#FFFFFF" height="33.9688" rx="12.5" ry="12.5" style="stroke:#333333;stroke-width:0.5;" width="190.9824" x="171.7266" y="463.5742"/><text fill="#000000" font-family="Arial" font-size="12" lengthAdjust="spacing" textLength="170.9824" x="181.7266" y="484.7129">redirect_to_login_or_register</text><rect fill="#FFFFFF" height="33.9688" rx="12.5" ry="12.5" style="stroke:#333333;stroke-width:0.5;" width="173.8555" x="180.29" y="532.543"/><text fill="#000000" font-family="Arial" font-size="12" lengthAdjust="spacing" textLength="153.8555" x="190.29" y="553.6816">login_or_register_account</text><rect fill="#FFFFFF" height="33.9688" rx="12.5" ry="12.5" style="stroke:#333333;stroke-width:0.5;" width="140.7266" x="196.8545" y="586.5117"/><text fill="#000000" font-family="Arial" font-size="12" lengthAdjust="spacing" textLength="120.7266" x="206.8545" y="607.6504">proceed_to_booking</text><rect fill="#FFFFFF" height="33.9688" rx="12.5" ry="12.5" style="stroke:#333333;stroke-width:0.5;" width="132.6934" x="392.709" y="429.5742"/><text fill="#000000" font-family="Arial" font-size="12" lengthAdjust="spacing" textLength="112.6934" x="402.709" y="450.7129">continue_browsing</text><ellipse cx="459.0557" cy="509.543" fill="none" rx="11" ry="11" style="stroke:#222222;stroke-width:1;"/><ellipse cx="459.0557" cy="509.543" fill="#222222" rx="6" ry="6" style="stroke:#222222;stroke-width:1;"/><line style="stroke:#181818;stroke-width:1;" x1="316.6731" x2="316.6731" y1="67.2969" y2="87.2969"/><polygon fill="#181818" points="312.6731,77.2969,316.6731,87.2969,320.6731,77.2969,316.6731,81.2969" style="stroke:#181818;stroke-width:1;"/><line style="stroke:#181818;stroke-width:1;" x1="316.6731" x2="316.6731" y1="121.2656" y2="141.2656"/><polygon fill="#181818" points="312.6731,131.2656,316.6731,141.2656,320.6731,131.2656,316.6731,135.2656" style="stroke:#181818;stroke-width:1;"/><line style="stroke:#181818;stroke-width:1;" x1="316.6731" x2="316.6731" y1="219.2344" y2="243.6367"/><polygon fill="#181818" points="312.6731,233.6367,316.6731,243.6367,320.6731,233.6367,316.6731,237.6367" style="stroke:#181818;stroke-width:1;"/><line style="stroke:#181818;stroke-width:1;" x1="375.8293" x2="493.9124" y1="207.2344" y2="207.2344"/><polygon fill="#181818" points="489.9124,250.6211,493.9124,260.6211,497.9124,250.6211,493.9124,254.6211" style="stroke:#181818;stroke-width:1;"/><line style="stroke:#181818;stroke-width:1;" x1="493.9124" x2="493.9124" y1="207.2344" y2="309.6055"/><line style="stroke:#181818;stroke-width:1;" x1="493.9124" x2="328.6731" y1="309.6055" y2="309.6055"/><polygon fill="#181818" points="338.6731,305.6055,328.6731,309.6055,338.6731,313.6055,334.6731,309.6055" style="stroke:#181818;stroke-width:1;"/><line style="stroke:#181818;stroke-width:1;" x1="316.6731" x2="316.6731" y1="277.6055" y2="297.6055"/><polygon fill="#181818" points="312.6731,287.6055,316.6731,297.6055,320.6731,287.6055,316.6731,291.6055" style="stroke:#181818;stroke-width:1;"/><line style="stroke:#181818;stroke-width:1;" x1="316.6731" x2="316.6731" y1="175.2344" y2="195.2344"/><polygon fill="#181818" points="312.6731,185.2344,316.6731,195.2344,320.6731,185.2344,316.6731,189.2344" style="stroke:#181818;stroke-width:1;"/><line style="stroke:#181818;stroke-width:1;" x1="316.6731" x2="316.6731" y1="321.6055" y2="341.6055"/><polygon fill="#181818" points="312.6731,331.6055,316.6731,341.6055,320.6731,331.6055,316.6731,335.6055" style="stroke:#181818;stroke-width:1;"/><line style="stroke:#181818;stroke-width:1;" x1="267.2178" x2="267.2178" y1="497.543" y2="532.543"/><polygon fill="#181818" points="263.2178,522.543,267.2178,532.543,271.2178,522.543,267.2178,526.543" style="stroke:#181818;stroke-width:1;"/><line style="stroke:#181818;stroke-width:1;" x1="267.2178" x2="267.2178" y1="566.5117" y2="586.5117"/><polygon fill="#181818" points="263.2178,576.5117,267.2178,586.5117,271.2178,576.5117,267.2178,580.5117" style="stroke:#181818;stroke-width:1;"/><line style="stroke:#181818;stroke-width:1;" x1="109.3364" x2="81.3633" y1="441.5742" y2="441.5742"/><line style="stroke:#181818;stroke-width:1;" x1="81.3633" x2="81.3633" y1="441.5742" y2="463.5742"/><polygon fill="#181818" points="77.3633,453.5742,81.3633,463.5742,85.3633,453.5742,81.3633,457.5742" style="stroke:#181818;stroke-width:1;"/><line style="stroke:#181818;stroke-width:1;" x1="239.2446" x2="267.2178" y1="441.5742" y2="441.5742"/><line style="stroke:#181818;stroke-width:1;" x1="267.2178" x2="267.2178" y1="441.5742" y2="463.5742"/><polygon fill="#181818" points="263.2178,453.5742,267.2178,463.5742,271.2178,453.5742,267.2178,457.5742" style="stroke:#181818;stroke-width:1;"/><line style="stroke:#181818;stroke-width:1;" x1="459.0557" x2="459.0557" y1="463.543" y2="498.543"/><polygon fill="#181818" points="455.0557,488.543,459.0557,498.543,463.0557,488.543,459.0557,492.543" style="stroke:#181818;stroke-width:1;"/><line style="stroke:#181818;stroke-width:1;" x1="255.0764" x2="174.2905" y1="407.5742" y2="407.5742"/><line style="stroke:#181818;stroke-width:1;" x1="174.2905" x2="174.2905" y1="407.5742" y2="429.5742"/><polygon fill="#181818" points="170.2905,419.5742,174.2905,429.5742,178.2905,419.5742,174.2905,423.5742" style="stroke:#181818;stroke-width:1;"/><line style="stroke:#181818;stroke-width:1;" x1="378.2698" x2="459.0557" y1="407.5742" y2="407.5742"/><line style="stroke:#181818;stroke-width:1;" x1="459.0557" x2="459.0557" y1="407.5742" y2="429.5742"/><polygon fill="#181818" points="455.0557,419.5742,459.0557,429.5742,463.0557,419.5742,459.0557,423.5742" style="stroke:#181818;stroke-width:1;"/><line style="stroke:#181818;stroke-width:1;" x1="316.6731" x2="316.6731" y1="375.5742" y2="395.5742"/><polygon fill="#181818" points="312.6731,385.5742,316.6731,395.5742,320.6731,385.5742,316.6731,389.5742" style="stroke:#181818;stroke-width:1;"/><?plantuml-src ZP8nR-Cm38Lt_Ge2DpGP3eUxsvAXQ0_8RLq2t2ee4cqJLaI3ecEulxwqqqE3jaErMEPxzCSd-Gx-KHr3XgFE6U68EWwkzbI68E4CjGk99oejD25Nl57EN3XsmcVy82LimfZrm4MVWkaFGY7Vw0zHwK8wBuOZFIFy_FM9-iYIKFvmPe5llzVrcIl4lXKUItfr7jRbd99QdhyZLeL3vYbsGHI-mt5WpRDpLUtTkTtwX1zmeKeAEPHaQVqGMjoRUXAUAdgyOD5g1MfWKp58xC1W3ML5kT-2TbXWCsFTEe3TrU1Fi-zndYp6ctSfng3Oiim-sSOFGj5GQ4S8cy9RXpP1O-WBuNG5-uGQAF_dnqonzoVctXUUtjCN1rKVngMgjC3IUu_DE0X7nEILrozPvlqgBAZOsVPjeDKlc4WmwjAGkQNYMRnWIzLINLjt7-e-n6XNe_klCjVej-HTj7-4oeX-lOdNbgeyNC_f1G00?></g></svg>